Coordinates
version=1
nRows=10
nColumns=34
inDegrees=yes

Units are S.I. units (second, meters, Newtons, ...)
If the header above contains a line with 'inDegrees', this indicates whether rotational values are in degrees (yes) or radians (no).

endheader
time	pelvis_tilt	pelvis_list	pelvis_rotation	pelvis_tx	pelvis_ty	pelvis_tz	hip_flexion_l	hip_adduction_l	hip_rotation_l	hip_flexion_r	hip_adduction_r	hip_rotation_r	knee_angle_l_beta	knee_angle_r_beta	knee_angle_l	knee_angle_r	ankle_angle_l	ankle_angle_r	subtalar_angle_l	subtalar_angle_r	mtp_angle_l	mtp_angle_r	lumbar_ext	lumbar_bend	lumbar_rota	shoulder_flexion_r	shoulder_adduction_r	shoulder_rotation_r	elbow_flexion_r	shoulder_flexion_l	shoulder_adduction_l	shoulder_rotation_l	elbow_flexion_l
      0.19000000	     14.68656182	      4.83494497	     -0.19383938	      0.17209161	      1.04777881	     -0.25530958	      2.38193711	      6.05058212	      2.78382324	    -18.16007817	     -9.26337300	     -9.37800897	      0.30969394	      0.87429835	    -17.74415580	    -50.09360558	      6.20538389	     -9.78816174	      7.20315845	     10.66543108	     -9.93186104	      2.29534646	    -33.29478650	     -8.89376816	      0.76501111	     -1.14278349	      3.65472609	    -25.81917391	     61.18144746	     -6.43734386	     -1.35728075	      0.08838137	     25.54437648
      0.20000000	     14.61536298	      5.11729909	     -0.57397900	      0.18471121	      1.04893404	     -0.25666978	      1.71525624	      6.48971370	      2.56856134	    -16.39358757	    -10.12268808	     -9.26463179	      0.30987369	      0.91948946	    -17.75445458	    -52.68286525	      6.87243822	     -9.97280334	      7.07497144	      8.91302113	    -10.01218195	      1.89713004	    -33.25135270	     -9.18605490	      0.54167151	     -1.46085471	      3.62591420	    -25.35184222	     60.23321470	     -5.87721920	     -1.44191022	      0.49561504	     25.83096711
      0.21000000	     14.39356544	      5.08259472	     -0.95114927	      0.19705572	      1.04983745	     -0.25760914	      1.22636420	      6.56935304	      2.48873064	    -14.38952544	    -10.57576387	     -9.03454199	      0.31103821	      0.96210829	    -17.82117658	    -55.12474417	      7.80347201	     -9.30904640	      7.12693654	      7.58260817	    -10.55278624	     -0.46936593	    -33.04628861	     -9.21464869	      0.60957386	     -1.83862925	      3.66034860	    -25.07372638	     59.33672904	     -5.16579827	     -1.53862528	      0.98328540	     25.92036605
      0.22000000	     14.52346192	      5.17025007	     -1.40750271	      0.20942144	      1.05142573	     -0.25847797	      0.20635414	      6.77793871	      2.21186985	    -12.81271923	    -11.12071078	     -8.77974550	      0.30607957	      0.99647858	    -17.53706739	    -57.09401729	      8.30980784	     -8.60720977	      7.11667249	      6.02267553	    -10.64924150	     -0.98210158	    -33.19183436	     -9.34881113	      0.54421787	     -2.13411909	      3.67643546	    -24.70086737	     58.31635298	     -4.48951863	     -1.63188932	      1.36027466	     26.16614502
      0.23000000	     14.51789823	      5.09171151	     -1.89611958	      0.22163320	      1.05276466	     -0.25923921	     -0.68206208	      6.80139781	      1.84374243	    -11.05019193	    -11.42746541	     -8.40971730	      0.30065658	      1.02650525	    -17.22635324	    -58.81441843	      8.93922402	     -7.35323493	      7.30199110	      4.71568697	    -10.82798191	     -2.13396714	    -33.16075747	     -9.33439010	      0.67049202	     -2.46889828	      3.67110883	    -24.41769437	     57.28685695	     -3.76153856	     -1.67947222	      1.66640516	     26.39841968
      0.24000000	     14.82392912	      4.83202908	     -1.96609128	      0.23350177	      1.05476968	     -0.26083415	     -1.91291710	      6.67510789	      2.00576700	     -9.82167877	    -11.48912813	     -8.53499629	      0.29488199	      1.04717927	    -16.89549320	    -59.99895247	      9.31469793	     -6.20306928	      7.33655346	      4.08681748	    -10.82658574	     -2.07793180	    -33.59296062	     -8.89074368	      0.54540405	     -2.82296834	      3.68136249	    -24.34060446	     56.51117426	     -2.93124674	     -1.69076712	      1.74345577	     26.71132167
      0.25000000	     14.88426392	      4.64856888	     -2.67345921	      0.24576030	      1.05621642	     -0.26079691	     -3.00363917	      6.56402980	      1.27029994	     -8.14251175	    -11.47773082	     -7.83581887	      0.28499088	      1.06694952	    -16.32877478	    -61.13170456	      9.91752285	     -3.81548093	      7.81747855	      3.11708235	    -11.22288815	     -5.86799165	    -33.55260919	     -8.90237371	      0.80463734	     -3.10622637	      3.69795796	    -23.97687877	     55.25417563	     -2.26966494	     -1.75414732	      1.88946958	     27.07700370
      0.26000000	     15.07607583	      4.36935317	     -2.87961884	      0.25778164	      1.05800112	     -0.26168785	     -4.23727249	      6.39616475	      1.29516351	     -6.85810961	    -11.33982087	     -7.75477565	      0.27480674	      1.07566028	    -15.74526655	    -61.63079417	     10.21877351	     -2.08355907	      7.82846647	      2.55217177	    -11.24621239	     -5.71513084	    -33.77911579	     -8.53812127	      0.80757132	     -3.48911019	      3.75754518	    -23.91543736	     54.28902059	     -1.48132769	     -1.80684230	      1.88887589	     27.48220404
      0.27000000	     15.25686129	      4.06985329	     -3.11889284	      0.26966001	      1.05970107	     -0.26262571	     -5.46401523	      6.21608215	      1.23770900	     -5.56290776	    -11.16126723	     -7.66385654	      0.26416116	      1.07975905	    -15.13531934	    -61.86563643	     10.42057293	     -0.45657193	      7.89726394	      2.25247975	    -11.28650394	     -5.60944681	    -33.99394523	     -8.14176510	      0.85354160	     -3.86931712	      3.79320797	    -23.85934185	     53.31616517	     -0.69308625	     -1.79519649	      1.81090750	     27.92037725
      0.28000000	     15.55529620	      3.69200542	     -3.53673657	      0.28169188	      1.06157979	     -0.26306519	     -6.89297105	      5.95347174	      0.69859313	     -4.47040898	    -10.82946128	     -7.32333181	      0.25113651	      1.07715083	    -14.38906237	    -61.71619652	     10.63816836	      1.42469229	      8.01922691	      2.57473863	    -11.34301143	     -5.63634709	    -34.26859789	     -7.79167282	      0.94686630	     -4.16971470	      3.82121274	    -23.74362085	     52.17437876	      0.01335464	     -1.79359488	      1.46093590	     28.43023778
